<?xml version="1.0" encoding="UTF-8" standalone="no"?>
<!-- Page 3 -->

<svg
   xmlns:dc="http://purl.org/dc/elements/1.1/"
   xmlns:cc="http://creativecommons.org/ns#"
   xmlns:rdf="http://www.w3.org/1999/02/22-rdf-syntax-ns#"
   xmlns:svg="http://www.w3.org/2000/svg"
   xmlns="http://www.w3.org/2000/svg"
   xmlns:sodipodi="http://sodipodi.sourceforge.net/DTD/sodipodi-0.dtd"
   xmlns:inkscape="http://www.inkscape.org/namespaces/inkscape"
   x="0"
   y="0"
   width="667"
   height="596.86707"
   version="1.1"
   style="display:block"
   id="svg2"
   inkscape:version="0.48.4 r9939"
   sodipodi:docname="benmap_methodology.svg">
  <metadata
     id="metadata366">
    <rdf:RDF>
      <cc:Work
         rdf:about="">
        <dc:format>image/svg+xml</dc:format>
        <dc:type
           rdf:resource="http://purl.org/dc/dcmitype/StillImage" />
        <dc:title>inMAP Page3</dc:title>
      </cc:Work>
    </rdf:RDF>
  </metadata>
  <sodipodi:namedview
     pagecolor="#ffffff"
     bordercolor="#666666"
     borderopacity="1"
     objecttolerance="10"
     gridtolerance="10"
     guidetolerance="10"
     inkscape:pageopacity="0"
     inkscape:pageshadow="2"
     inkscape:window-width="1280"
     inkscape:window-height="657"
     id="namedview364"
     showgrid="false"
     fit-margin-top="0"
     fit-margin-left="0"
     fit-margin-right="0"
     fit-margin-bottom="0"
     inkscape:zoom="1.3885006"
     inkscape:cx="298.52988"
     inkscape:cy="391.5645"
     inkscape:window-x="-8"
     inkscape:window-y="-8"
     inkscape:window-maximized="1"
     inkscape:current-layer="svg2" />
  <defs
     id="defs4">
    <style
       type="text/css"
       id="style6">

.g4_3{
fill: #85CDD4;
}
.g7_3{
fill: #FFFFFF;
}
.g2_3{
fill: #EE3B34;
}
.g12_3{
fill: none;
stroke: #961C3C;
stroke-width: 1;
stroke-linecap: butt;
stroke-linejoin: miter;
}
.g10_3{
fill: none;
stroke: #EE3B34;
stroke-width: 1;
stroke-linecap: butt;
stroke-linejoin: round;
}
.g11_3{
fill: none;
stroke: #85CDD4;
stroke-width: 1;
stroke-linecap: butt;
stroke-linejoin: round;
}
.g1_3{
fill: none;
stroke: #EE3B34;
stroke-width: 4;
stroke-linecap: butt;
stroke-linejoin: round;
stroke-miterlimit: 4;
}
.g6_3{
fill: none;
stroke: #85CDD4;
stroke-width: 4;
stroke-linecap: round;
stroke-linejoin: round;
}
.g8_3{
fill: none;
stroke: #EE3B34;
stroke-width: 2;
stroke-linecap: butt;
stroke-linejoin: round;
}
.g5_3{
fill: none;
stroke: #EE3B34;
stroke-width: 1;
stroke-linecap: butt;
stroke-linejoin: miter;
}
.g9_3{
fill: none;
stroke: #85CDD4;
stroke-width: 2;
stroke-linecap: butt;
stroke-linejoin: round;
}
.g14_3{
fill: none;
stroke: #85CDD4;
stroke-width: 14;
stroke-linecap: round;
stroke-linejoin: round;
}
.g13_3{
fill: none;
stroke: #961C3C;
stroke-width: 14;
stroke-linecap: round;
stroke-linejoin: round;
}
.g3_3{
fill: #961C3C;
}

.s7_3{
font-size: 13.75px;
font-family: BXJRPT-ModernicaBook3;
fill: #231F20;
}
.s8_3{
font-size: 27.50px;
font-family: BXJRPT-Clarke-Medium3;
fill: #961C3C;
}
.s11_3{
font-size: 14.79px;
font-family: BXJRPT-Clarke-Medium3;
fill: #FFFFFF;
}
.s2_3{
font-size: 20.75px;
font-family: BXJRPT-Clarke-Medium3;
fill: #EE3B34;
}
.s3_3{
font-size: 20.75px;
font-family: BXJRPT-Clarke-Medium3;
fill: #85CDD4;
}
.s9_3{
font-size: 18.33px;
font-family: BXJRPT-ModernicaBook3;
fill: #231F20;
}
.s10_3{
font-size: 27.50px;
font-family: BXJRPT-Clarke-Medium3;
fill: #85CDD4;
}
.s4_3{
font-size: 76.59px;
font-family: BXJRPT-Clarke-Medium3;
fill: #961C3C;
}
.s1_3{
font-size: 20.75px;
font-family: BXJRPT-Clarke-Medium3;
fill: #961C3C;
}
.s5_3{
font-size: 47.04px;
font-family: BXJRPT-Clarke-Medium3;
fill: #85CDD4;
}
.s6_3{
font-size: 31.59px;
font-family: BXJRPT-Clarke-Light3;
fill: #FFFFFF;
}

</style>
  </defs>
  <path
     d="m 5,394.16193 63,0 597,0 0,-279 -663,0 0,-69.999994 0,-33 42,0"
     class="g1_3"
     id="path10"
     inkscape:connector-curvature="0"
     style="fill:none;stroke:#ee3b34;stroke-width:4;stroke-linecap:butt;stroke-linejoin:round;stroke-miterlimit:4" />
  <path
     d="m 44.8,16.361936 c 1.9,0 3.4,-1.5 3.4,-3.4 0,-1.900001 -1.5,-3.5000007 -3.4,-3.5000007 -1.9,0 -3.5,1.5999997 -3.5,3.5000007 0,1.9 1.6,3.4 3.5,3.4 z"
     class="g2_3"
     id="path14"
     inkscape:connector-curvature="0"
     style="fill:#ee3b34" />
  <path
     d="m 500.8,394.86193 c 0,34.2 27.8,61.9 62,61.9 34.2,0 61.9,-27.7 61.9,-61.9 0,-34.2 -27.7,-62 -61.9,-62 -34.2,0 -62,27.7 -62,62 z"
     class="g3_3"
     id="path28"
     inkscape:connector-curvature="0"
     style="fill:#961c3c" />
  <path
     d="m 500.9,115.16193 c 0,34.3 27.8,62 62,62 34.2,0 61.9,-27.7 61.9,-61.9 0,-34.299994 -27.7,-61.999994 -61.9,-61.999994 -34.2,0 -62,27.7 -62,61.899994 z"
     class="g4_3"
     id="path30"
     inkscape:connector-curvature="0"
     style="fill:#85cdd4" />
  <path
     d="m 278.2,394.86193 c 0,34.2 27.7,61.9 61.9,61.9 34.2,0 62,-27.7 62,-61.9 0,-34.2 -27.8,-62 -62,-62 -34.2,0 -61.9,27.7 -61.9,62 z"
     class="g2_3"
     id="path32"
     inkscape:connector-curvature="0"
     style="fill:#ee3b34" />
  <path
     d="m 278.2,394.86193 c 0,34.2 27.7,61.9 61.9,61.9 34.2,0 62,-27.7 62,-61.9 0,-34.2 -27.8,-62 -62,-62 -34.2,0 -61.9,27.7 -61.9,62 z"
     class="g5_3"
     id="path34"
     inkscape:connector-curvature="0"
     style="fill:none;stroke:#ee3b34;stroke-width:1;stroke-linecap:butt;stroke-linejoin:miter" />
  <path
     d="m 552.6,363.26193 c -7.3,-2.7 -17.6,-1 -22.8,5 -5.4,6.1 -5.6,15.3 -3.4,22.7 4.4,14.4 17.9,27 27.6,38 2.7,3.1 5.7,5.7 8.7,8.4 0,0 0.1,-66.5 0.1,-66.8 0,-3.3 -7.8,-6.4 -10.2,-7.3 z"
     class="g2_3"
     id="path44"
     inkscape:connector-curvature="0"
     style="fill:#ee3b34" />
  <path
     d="m 552.6,363.26193 c -7.3,-2.7 -17.6,-1 -22.8,5 -5.4,6.1 -5.6,15.3 -3.4,22.7 4.4,14.4 17.9,27 27.6,38 2.7,3.1 5.7,5.7 8.7,8.4 0,0 0.1,-66.5 0.1,-66.8 0,-3.3 -7.8,-6.4 -10.2,-7.3 z"
     class="g5_3"
     id="path46"
     inkscape:connector-curvature="0"
     style="fill:none;stroke:#ee3b34;stroke-width:1;stroke-linecap:butt;stroke-linejoin:miter" />
  <path
     d="m 587.9,362.96193 c -4.8,-1.7 -10.6,-1.7 -15.3,0.2 -2.3,0.9 -9.8,4 -9.8,7.2 0,0.3 0.4,67 0.4,67 2.9,-2.7 5.7,-5.5 8.4,-8.6 9.7,-11.1 23.2,-23.6 27.6,-38 3.3,-11 0.5,-23.6 -11.3,-27.8 z"
     class="g2_3"
     id="path48"
     inkscape:connector-curvature="0"
     style="fill:#ee3b34" />
  <path
     d="m 587.9,362.96193 c -4.8,-1.7 -10.6,-1.7 -15.3,0.2 -2.3,0.9 -9.8,4 -9.8,7.2 0,0.3 0.4,67 0.4,67 2.9,-2.7 5.7,-5.5 8.4,-8.6 9.7,-11.1 23.2,-23.6 27.6,-38 3.3,-11 0.5,-23.6 -11.3,-27.8 z"
     class="g5_3"
     id="path50"
     inkscape:connector-curvature="0"
     style="fill:none;stroke:#ee3b34;stroke-width:1;stroke-linecap:butt;stroke-linejoin:miter" />
  <path
     d="m 533.9,392.96193 15.7,0 4.8,-13.3 6,22.7 6.1,-14.3 4.8,7.3 19.5,0"
     class="g6_3"
     id="path52"
     inkscape:connector-curvature="0"
     style="fill:none;stroke:#85cdd4;stroke-width:4;stroke-linecap:round;stroke-linejoin:round" />
  <g
     id="g4685"
     transform="translate(-1.9694155,0.52194222)">
    <g
       id="g4491">
      <text
         x="321.08334"
         y="419.55197"
         dx="0"
         class="s4_3"
         id="text62"
         style="font-size:76.58999634px;font-family:BXJRPT-Clarke-Medium3;fill:#961c3c">
        <tspan
           id="tspan4485"
           style="font-style:normal;font-variant:normal;font-weight:normal;font-stretch:normal;font-family:Helvetica;-inkscape-font-specification:Helvetica">$</tspan>
      </text>
      <text
         x="363.8808"
         y="409.80539"
         dx="0"
         class="s5_3"
         id="text64"
         style="font-size:47.04000092px;font-family:BXJRPT-Clarke-Medium3;fill:#85cdd4">
        <tspan
           id="tspan4487"
           style="font-style:normal;font-variant:normal;font-weight:normal;font-stretch:normal;font-family:Helvetica;-inkscape-font-specification:Helvetica">$</tspan>
      </text>
      <text
         x="294.51819"
         y="409.80539"
         dx="0"
         class="s5_3"
         id="text66"
         style="font-size:47.04000092px;font-family:BXJRPT-Clarke-Medium3;fill:#85cdd4">
        <tspan
           id="tspan4489"
           style="font-style:normal;font-variant:normal;font-weight:normal;font-stretch:normal;font-family:Helvetica;-inkscape-font-specification:Helvetica">$</tspan>
      </text>
    </g>
  </g>
  <path
     d="m 590,91.061936 c -0.4,-0.1 -3.6,-1 -3.6,-0.3 0.1,-1 -1.1,-2.8 -1.1,-2.8 1.5,-9.8 -9.2,-10.9 -9.2,-10.9 0.3,0 0.7,-2.2 0.7,-2.4 0.1,-1.4 -0.4,-3.3 -1.1,-4.5 -2.9,-5.2 -10.8,-3 -11.7,2.5 -0.3,1.6 -0.1,3.2 0.2,4.8 0,0.2 0.3,1.9 0.6,2 -2.2,-0.6 -5.1,1.4 -5.1,1.4 -0.1,0.1 -2.4,-1.2 -2.6,-1.3 -1.7,-0.7 -3.5,-1.1 -5.3,-1.4 -4.8,-0.9 -10.4,-0.3 -13.9,3.4 -3.8,3.9 -4.9,10 -3.2,15.1 0.5,-0.5 1.1,-1 1.8,-1.5 0.7,-0.5 1.5,-1 2.3,-1.4 0.9,-0.5 1.7,-0.9 2.6,-1.2 4.1,-1.6 8.8,-2.1 13.2,-1.3 1.5,0.3 3.1,0.7 4.6,1.3 0.8,0.3 1.6,0.7 2.3,1.1 0.7,0.4 1.7,0.9 2.3,1.4 0,0 6,5.800004 5.7,12.299994 0,1.5 0,3 0,4.5 0.1,1.1 0,2.4 0.8,3.3 1.2,1.4 3.5,1.9 3.5,4.1 0,1.9 -2.8,2.1 -3.2,3.4 -0.3,1.3 0.3,3 0.2,3.4 0,0.4 -1.3,0.7 -1.3,0.9 0,0.1 1,0.7 0.9,1.3 -0.1,0.6 -0.1,0.8 -1.4,1.6 -1.2,0.9 -0.2,2.3 -0.2,2.3 0,0 0.9,1.3 0.1,2.6 -0.8,1.2 -5.6,1.2 -5.8,1.2 -0.1,0.1 -3.2,-0.1 -4.4,1.5 -1.2,1.6 -2.6,6 -1.6,8.3 0,0 0.2,0.3 0,0.5 -0.1,0.1 -2.6,0.2 -6.1,0.2 0.1,0.2 0.2,0.4 0.2,0.4 -4.6,2.5 -2.5,7.3 -2.5,7.3 -5.2,1.9 -2.6,9.2 2,8.4 4.7,-0.8 3.6,-5.2 3.6,-5.2 1.1,0.6 3,0.3 3,0.3 6.1,-2.3 3.6,-7.3 3.6,-7.3 0.8,-0.4 1.4,-1.3 1.4,-1.3 2.3,2 5.4,2.2 7.9,0.5 1.9,-1.2 2.7,-3.2 2.8,-5.3 0.1,-0.4 0.3,-2.4 -0.1,-2.7 4.1,2.8 9.5,1.1 11,-3.7 0.8,-2.4 0.2,-5.2 -1.1,-7.4 -0.1,-0.2 -2.4,-2.8 -2.4,-2.8 1.3,-2.5 -0.3,-5.5 -0.3,-5.5 0.3,0.4 2.4,0 2.8,0 4.9,-0.9 8,-4.8 7,-9.9 -0.1,-0.4 -0.8,-4.3 -1.2,-4.2 2.6,-0.6 5.4,-2.2 6.6,-4.8 0.5,-0.9 0.7,-2.09999 0.8,-3.09999 0.2,-4.200004 -2.1,-7.800004 -6.1,-9.100004 z"
     class="g2_3"
     id="path318"
     inkscape:connector-curvature="0"
     style="fill:#ee3b34" />
  <path
     d="m 557.1,145.76193 c -1,-2.3 0.4,-6.7 1.6,-8.3 1.2,-1.6 4.3,-1.4 4.4,-1.5 0.2,0 5,0 5.8,-1.2 0.8,-1.3 -0.1,-2.6 -0.1,-2.6 0,0 -1,-1.4 0.2,-2.3 1.3,-0.8 1.3,-1 1.4,-1.6 0.1,-0.6 -0.9,-1.2 -0.9,-1.3 0,-0.2 1.3,-0.5 1.3,-0.9 0.1,-0.4 -0.5,-2.1 -0.2,-3.4 0.4,-1.3 3.2,-1.5 3.2,-3.4 0,-2.2 -2.3,-2.7 -3.5,-4.1 -0.8,-0.9 -0.7,-2.2 -0.8,-3.3 0,-1.5 0,-3 0,-4.5 0.3,-6.49999 -5.7,-12.299994 -5.7,-12.299994 -0.6,-0.5 -1.6,-1 -2.3,-1.4 -0.7,-0.4 -1.5,-0.8 -2.3,-1.1 -1.5,-0.6 -3.1,-1 -4.6,-1.3 -4.4,-0.8 -9.1,-0.3 -13.2,1.3 -0.9,0.3 -1.7,0.7 -2.6,1.2 -0.8,0.4 -1.6,0.9 -2.3,1.4 -0.7,0.5 -1.3,1 -1.8,1.5 0.5,1.8 1.4,3.400004 2.7,4.800004 0.9,0.89999 1.9,1.69999 3,2.39999 0,0 1.3,0.7 1.3,0.7 -2.2,10.4 6.7,14.7 6.7,14.7 -2.2,7.8 6.2,9.4 6.2,9.4 -0.5,3.9 3.5,4.8 3.5,4.8 -11.1,0.7 -7.8,10.9 -7.1,13 3.5,0 6,-0.1 6.1,-0.2 0.2,-0.2 0,-0.5 0,-0.5 z"
     class="g3_3"
     id="path320"
     inkscape:connector-curvature="0"
     style="fill:#961c3c" />
  <path
     d="m 557.1,145.76193 c -1,-2.3 0.4,-6.7 1.6,-8.3 1.2,-1.6 4.3,-1.4 4.4,-1.5 0.2,0 5,0 5.8,-1.2 0.8,-1.3 -0.1,-2.6 -0.1,-2.6 0,0 -1,-1.4 0.2,-2.3 1.3,-0.8 1.3,-1 1.4,-1.6 0.1,-0.6 -0.9,-1.2 -0.9,-1.3 0,-0.2 1.3,-0.5 1.3,-0.9 0.1,-0.4 -0.5,-2.1 -0.2,-3.4 0.4,-1.3 3.2,-1.5 3.2,-3.4 0,-2.2 -2.3,-2.7 -3.5,-4.1 -0.8,-0.9 -0.7,-2.2 -0.8,-3.3 0,-1.5 0,-3 0,-4.5 0.3,-6.49999 -5.7,-12.299994 -5.7,-12.299994 -0.6,-0.5 -1.6,-1 -2.3,-1.4 -0.7,-0.4 -1.5,-0.8 -2.3,-1.1 -1.5,-0.6 -3.1,-1 -4.6,-1.3 -4.4,-0.8 -9.1,-0.3 -13.2,1.3 -0.9,0.3 -1.7,0.7 -2.6,1.2 -0.8,0.4 -1.6,0.9 -2.3,1.4 -0.7,0.5 -1.3,1 -1.8,1.5 0.5,1.8 1.4,3.400004 2.7,4.800004 0.9,0.89999 1.9,1.69999 3,2.39999 0,0 1.3,0.7 1.3,0.7 -2.2,10.4 6.7,14.7 6.7,14.7 -2.2,7.8 6.2,9.4 6.2,9.4 -0.5,3.9 3.5,4.8 3.5,4.8 -11.1,0.7 -7.8,10.9 -7.1,13 3.5,0 6,-0.1 6.1,-0.2 0.2,-0.2 0,-0.5 0,-0.5 z"
     class="g12_3"
     id="path322"
     inkscape:connector-curvature="0"
     style="fill:none;stroke:#961c3c;stroke-width:1;stroke-linecap:butt;stroke-linejoin:miter" />
  <text
     x="534.82178"
     y="218.16193"
     class="s3_3"
     id="text26"
     style="font-size:20.75px;font-family:BXJRPT-Clarke-Medium3;fill:#85cdd4">
    <tspan
       style="font-style:normal;font-variant:normal;font-weight:normal;font-stretch:normal;font-size:21.25px;font-family:Helvetica;-inkscape-font-specification:Helvetica"
       id="tspan4502">exposure</tspan>
  </text>
  <path
     d="m 504.3218,211.56193 c 0,5.8 4.7,10.5 10.6,10.5 5.8,0 10.5,-4.7 10.5,-10.5 0,-5.9 -4.7,-10.6 -10.5,-10.6 -5.9,0 -10.6,4.7 -10.6,10.6 z"
     class="g4_3"
     id="path342"
     inkscape:connector-curvature="0"
     style="fill:#85cdd4" />
  <text
     dx="0"
     class="s11_3"
     id="text344"
     style="font-size:14.78999996px;font-family:BXJRPT-Clarke-Medium3;fill:#ffffff"
     x="510.90347"
     y="216.54906">
    <tspan
       style="font-style:normal;font-variant:normal;font-weight:normal;font-stretch:normal;font-family:Helvetica;-inkscape-font-specification:Helvetica"
       id="tspan4277">3</tspan>
  </text>
  <path
     d="m 480.10916,490.16193 c 0,5.8 4.7,10.5 10.5,10.5 5.8,0 10.6,-4.7 10.6,-10.5 0,-5.8 -4.8,-10.6 -10.6,-10.6 -5.8,0 -10.5,4.8 -10.5,10.6 z"
     class="g3_3"
     id="path346"
     inkscape:connector-curvature="0"
     style="fill:#961c3c" />
  <text
     x="511.20917"
     y="497.16193"
     dx="0 0 0 0 -1.8 0 0 0 0 0 -0.69999999 -0.40000001 -0.2 -0.2"
     class="s1_3"
     id="text24"
     style="font-size:20.75px;font-family:BXJRPT-Clarke-Medium3;fill:#961c3c">
    <tspan
       style="font-style:normal;font-variant:normal;font-weight:normal;font-stretch:normal;font-size:21.25px;font-family:Helvetica;-inkscape-font-specification:Helvetica"
       id="tspan4510">health impacts</tspan>
  </text>
  <text
     dx="0"
     class="s11_3"
     id="text348"
     style="font-size:14.78999996px;font-family:BXJRPT-Clarke-Medium3;fill:#ffffff"
     x="486.00839"
     y="495.5029">
    <tspan
       style="-inkscape-font-specification:Helvetica;font-family:Helvetica;font-weight:normal;font-style:normal;font-stretch:normal;font-variant:normal"
       id="tspan4271">4</tspan>
  </text>
  <path
     d="m 239.02849,490.16193 c 0,5.8 4.8,10.5 10.6,10.5 5.8,0 10.5,-4.7 10.5,-10.5 0,-5.8 -4.7,-10.6 -10.5,-10.6 -5.8,0 -10.6,4.8 -10.6,10.6 z"
     class="g2_3"
     id="path350"
     inkscape:connector-curvature="0"
     style="fill:#ee3b34" />
  <path
     d="m 239.02849,490.16193 c 0,5.8 4.8,10.5 10.6,10.5 5.8,0 10.5,-4.7 10.5,-10.5 0,-5.8 -4.7,-10.6 -10.5,-10.6 -5.8,0 -10.6,4.8 -10.6,10.6 z"
     class="g5_3"
     id="path352"
     inkscape:connector-curvature="0"
     style="fill:none;stroke:#ee3b34;stroke-width:1;stroke-linecap:butt;stroke-linejoin:miter" />
  <text
     x="269.62848"
     y="497.16193"
     dx="0 0 0 0 0 0 0 0 0 0 -0.30000001 0 0 -0.40000001 0"
     class="s2_3"
     id="text20"
     style="font-size:20.75px;font-family:BXJRPT-Clarke-Medium3;fill:#ee3b34">
    <tspan
       style="font-style:normal;font-variant:normal;font-weight:normal;font-stretch:normal;font-size:21.25px;font-family:Helvetica;-inkscape-font-specification:Helvetica"
       id="tspan4508">economic damage</tspan>
  </text>
  <text
     class="s11_3"
     id="text354"
     style="font-size:14.78999996px;font-family:BXJRPT-Clarke-Medium3;fill:#ffffff"
     x="245.54156"
     y="495.06601"
     dx="0">
    <tspan
       style="font-style:normal;font-variant:normal;font-weight:normal;font-stretch:normal;font-family:Helvetica;-inkscape-font-specification:Helvetica"
       id="tspan4483">5</tspan>
  </text>
  <!-- Any embedded fonts defined here -->
  <style
     type="text/css"
     id="style360">

@font-face {
	font-family: BXJRPT-Clarke-Light3;
	src: url(&quot;3/fonts/BXJRPT-Clarke-Light.woff&quot;) format(&quot;woff&quot;);
}

@font-face {
	font-family: BXJRPT-Clarke-Medium3;
	src: url(&quot;3/fonts/BXJRPT-Clarke-Medium.woff&quot;) format(&quot;woff&quot;);
}

@font-face {
	font-family: BXJRPT-ModernicaBook3;
	src: url(&quot;3/fonts/BXJRPT-ModernicaBook.woff&quot;) format(&quot;woff&quot;);
}

</style>
  <title
     id="title362">inMAP Page3</title>
  <text
     xml:space="preserve"
     style="font-size:17.5px;font-style:normal;font-variant:normal;font-weight:normal;font-stretch:normal;line-height:125%;letter-spacing:0px;word-spacing:0px;fill:#ffffff;fill-opacity:1;stroke:none;font-family:Helvetica;-inkscape-font-specification:Helvetica"
     x="51.467213"
     y="21.591797"
     id="text4494"
     sodipodi:linespacing="125%"><tspan
       sodipodi:role="line"
       id="tspan4496"
       x="51.467213"
       y="21.591797"
       style="font-size:30px;fill:#85cdd4;fill-opacity:1">BenMAP methodology</tspan></text>
  <flowRoot
     xml:space="preserve"
     id="flowRoot4528"
     style="font-style:normal;font-variant:normal;font-weight:normal;font-stretch:normal;font-size:17.5px;line-height:125%;font-family:Helvetica;-inkscape-font-specification:Helvetica;letter-spacing:0px;word-spacing:0px;fill:#ffffff;fill-opacity:1;stroke:none;stroke-width:1px;stroke-linecap:butt;stroke-linejoin:miter;stroke-opacity:1"
     transform="translate(0,1.7969418)"><flowRegion
       id="flowRegion4530"><rect
         id="rect4532"
         width="7.2020135"
         height="43.212082"
         x="44.652485"
         y="249.46909" /></flowRegion><flowPara
       id="flowPara4534" /></flowRoot></svg>
